<svg width="149" height="130" viewBox="0 0 149 130" fill="none" xmlns="http://www.w3.org/2000/svg">
  <!-- Circle-like Logo Mark -->
  <path d="M50.0959 63.3957C48.1893 62.5868 45.9632 63.4733 45.3984 65.4658C44.443 68.8362 44.0827 72.3575 44.3437 75.8703C44.6047 79.3832 45.4815 82.8126 46.9245 86.0047C47.7776 87.892 50.1102 88.4397 51.8763 87.3579C53.6424 86.2762 54.1642 83.9744 53.3904 82.0533C52.5265 79.9082 51.9955 77.6357 51.8231 75.3146C51.6506 72.9935 51.8399 70.6675 52.3773 68.4182C52.8586 66.4039 52.0025 64.2045 50.0959 63.3957Z" fill="white"/>
  <path d="M50.5154 85.587C48.6872 86.4519 47.8881 88.6504 48.9691 90.3597C52.1149 95.3336 56.6715 99.2972 62.0948 101.718C68.6382 104.639 76.0111 105.121 82.8793 103.078C89.7475 101.034 95.6573 96.5997 99.5395 90.5766C103.422 84.5536 105.02 77.3399 104.044 70.2408C103.069 63.1417 99.5852 56.6261 94.2226 51.8731C88.8601 47.12 81.9733 44.4434 74.8085 44.3276C67.6437 44.2118 60.674 46.6644 55.1606 51.2416C50.5911 55.0353 47.2721 60.0808 45.5841 65.7188C45.004 67.6562 46.3664 69.5578 48.36 69.8976C50.3537 70.2375 52.2174 68.8814 52.8733 66.9683C54.2168 63.0506 56.6164 59.5518 59.8388 56.8765C64.0062 53.4167 69.2744 51.5628 74.6901 51.6504C80.1059 51.7379 85.3114 53.7611 89.3648 57.3538C93.4182 60.9465 96.0517 65.8715 96.7889 71.2375C97.526 76.6035 96.3181 82.0562 93.3837 86.6089C90.4492 91.1615 85.9821 94.5135 80.7906 96.0582C75.5991 97.6029 70.0262 97.2383 65.0802 95.0304C61.2557 93.3232 58.0015 90.6011 55.6514 87.1908C54.5038 85.5255 52.3435 84.7222 50.5154 85.587Z" fill="#9A0D80" stroke="#0E0E0E" stroke-width="4"/>

  
</svg>
